# xmcd
#
# Track frame offsets:
#  150
#  11103
#  22293
#  31970
#  43780
#  54450
#  66340
#  76158
#  88413
#  97820
#  109460
#  120265
#  132873
#  145905
#  156355
#  170340
#  184230
#  194750
#  205750
#  218618
#  232208
#  245310
#
# Disc length: 3452 seconds
#
# Revision: 0
# Processed by: cddbd v1.5.1PL2 Copyright (c) Steve Scherf et al.
# Submitted via: Collectorz.com_Music_Collector 6.9
#
DISCID=400d7a16
DTITLE=Silas Hogan - So Long Blues
DYEAR=1994
DGENRE=Blues
TTITLE0=I'm Gonna Quit You Pretty Baby
TTITLE1=Trouble At Home Blues
TTITLE2=You're Too Late Baby
TTITLE3=Airport Blues
TTITLE4=Go On Pretty Baby
TTITLE5=Here They Are Again
TTITLE6=Lonesome La La
TTITLE7=Roamin' Woman Blues
TTITLE8=I'm Goin' In The Valley
TTITLE9=Everybody Needs Somebody
TTITLE10=Just Give Me A Chance
TTITLE11=Dark Clouds Rollin'
TTITLE12=Early One Morning
TTITLE13=I'm In Love With You Baby
TTITLE14=More Trouble At Home
TTITLE15=Sittin' Here Wondering
TTITLE16=So Glad
TTITLE17=Every Saturday Night
TTITLE18=Baby Please Come Back To Me
TTITLE19=If I Ever Needed You Baby
TTITLE20=Out And Down Blues
TTITLE21=So Long Blues
EXTD=
EXTT0=
EXTT1=
EXTT2=
EXTT3=
EXTT4=
EXTT5=
EXTT6=
EXTT7=
EXTT8=
EXTT9=
EXTT10=
EXTT11=
EXTT12=
EXTT13=
EXTT14=
EXTT15=
EXTT16=
EXTT17=
EXTT18=
EXTT19=
EXTT20=
EXTT21=
PLAYORDER=
